<svg width="24" height="25" viewBox="0 0 24 25" fill="none" xmlns="http://www.w3.org/2000/svg">
<path d="M3.62297 20.2346C4.99594 21.5858 7.19706 21.5858 11.6102 21.5858H12.3893C16.8025 21.5858 19.009 21.5858 20.3765 20.2346C21.7495 18.8834 21.7495 16.7095 21.7495 12.3562V11.588C21.7495 7.24018 21.7495 5.06081 20.3765 3.70961C19.0036 2.3584 16.8025 2.3584 12.3893 2.3584H11.6102C7.19706 2.3584 4.9905 2.3584 3.62297 3.70961C2.25 5.06081 2.25 7.23473 2.25 11.588V12.3562C2.25 16.704 2.25 18.8834 3.62297 20.2346Z" fill="#ABAAAA"/>
<path fill-rule="evenodd" clip-rule="evenodd" d="M17.3033 15.1348L15.9848 14.8079C15.8268 14.7644 15.7124 14.6227 15.7069 14.4592L15.5435 9.67558C15.4944 9.04356 15.0204 8.53686 14.5192 8.38975C14.4919 8.37885 14.4592 8.38975 14.4429 8.41699C14.4266 8.43879 14.432 8.47693 14.4538 8.49327C14.5791 8.58589 14.9169 8.89101 14.9169 9.4195V15.6688C14.9169 16.2736 14.3394 16.7149 13.7401 16.5678L12.3998 16.2409C12.2527 16.1918 12.1492 16.0556 12.1437 15.8976L11.9803 11.1139C11.9312 10.4819 11.4572 9.97524 10.956 9.82813C10.9287 9.81724 10.8961 9.82813 10.8797 9.85537C10.8634 9.87717 10.8688 9.91531 10.8906 9.93165C11.0159 10.0243 11.3537 10.3293 11.3537 10.8578V16.0665V17.1072C11.3537 17.7119 10.7762 18.1533 10.1769 18.0062L6.39572 17.0745C5.87268 16.9437 5.5022 16.4806 5.5022 15.9521V9.69192C5.5022 9.08715 6.07972 8.64583 6.67903 8.79293L9.05994 9.38136V8.25354C9.05994 7.64877 9.63746 7.20745 10.2368 7.35455L12.6177 7.94298V6.81516C12.6177 6.21039 13.1952 5.76907 13.7946 5.91617L17.5757 6.84785C18.0987 6.97861 18.4692 7.44173 18.4692 7.97022V14.2304C18.4692 14.8352 17.8917 15.2765 17.2924 15.1294L17.3033 15.1348Z" fill="#F4F4F3"/>
</svg>
