<svg width="24" height="25" viewBox="0 0 24 25" fill="none" xmlns="http://www.w3.org/2000/svg">
<path fill-rule="evenodd" clip-rule="evenodd" d="M16.0936 2.9375H7.90709C4.05067 2.9375 2.64014 4.34805 2.64014 8.20448V16.3912C2.64014 20.2475 4.05067 21.658 7.90709 21.658H16.0911C19.9475 21.658 21.3607 20.2475 21.3607 16.3912V8.20448C21.3607 4.34805 19.95 2.9375 16.0936 2.9375Z" fill="#ABAAAA"/>
<path d="M10.8075 13.7945H11.5583L11.1817 12.9188L10.8075 13.7945ZM10.6227 14.236L10.4001 14.7456H9.893L10.9713 12.2993H11.4093L1534 14.7456H11.9627L11.7428 14.236H10.6227ZM18.7814 14.7439H19.2715V12.2993H18.7814V14.7439ZM16.8312 13.6934H17.7343V13.248H16.8312V12.7469H18.1422V12.3009H16.3413V14.7453H18.1895V14.2995H16.8312V13.6934ZM14.884 13.9824L14.3284 12.2993H13.9232L13.3675 13.9824L12.8268 12.3005H12.2983L13.1513 14.7467H13.5624L14.1189 13.1399L14.6752 14.7467H15.09L15.9409 12.3005H15.426L14.884 13.9824ZM9.14496 13.7002C9.14496 14.0982 8.94732 14.3108 8.58847 14.3108C8.22767 14.3108 8.02902 14.0922 8.02902 13.6833V12.3008H7.53243V13.7002C7.53243 14.3888 7.91493 14.7835 8.58177 14.7835C9.25512 14.7835 9.64135 14.3813 9.64135 13.68V12.2993H9.14496V13.7002ZM6.34753 12.2993H6.84392V14.7468H6.34753V13.7529H5.22607V14.7468H4.72949V12.2993H5.22607V13.2867H6.34753V12.2993Z" fill="white"/>
<path d="M12.0006 9.18348C10.2824 9.18348 8.88452 7.78553 8.88452 6.06738H9.32475C9.32475 7.54284 10.525 8.74327 12.0006 8.74327C13.4761 8.74327 14.6764 7.54284 14.6764 6.06738H15.1167C15.1167 7.78553 13.7187 9.18348 12.0006 9.18348Z" fill="white"/>
</svg>
