<svg width="17" height="17" viewBox="0 0 17 17" fill="none" xmlns="http://www.w3.org/2000/svg">
<path d="M8.88609 3.91607C9.62455 3.91607 10.2399 3.30068 10.2399 2.56222C10.2399 1.82376 9.62455 1.20837 8.88609 1.20837C8.14763 1.20837 7.53225 1.70068 7.53225 2.56222C7.53225 3.30068 8.14763 3.91607 8.88609 3.91607ZM12.8246 14.8699C12.8246 14.7468 11.5938 11.3007 11.5938 11.3007L9.74763 9.33145V5.39299C9.74763 4.53145 8.14763 3.91607 8.02455 4.16222C7.90148 4.16222 5.19378 6.00837 5.19378 6.00837L4.82455 8.96222V9.0853C4.82455 9.45453 5.07071 9.70068 5.43994 9.70068C5.80917 9.70068 6.05532 9.45453 6.05532 9.0853L6.30148 6.74684L7.65532 5.8853V9.33145L10.1169 11.793L11.3476 15.2391C11.4707 15.4853 11.7169 15.7315 11.963 15.7315C12.3322 15.7315 12.7015 15.3622 12.7015 14.993C12.8246 14.993 12.8246 14.993 12.8246 14.8699ZM4.5784 14.3776C4.45532 14.5007 4.45532 14.6238 4.45532 14.8699C4.45532 15.2391 4.82455 15.6084 5.19378 15.6084C5.43994 15.6084 5.68609 15.4853 5.80917 15.2391L8.02455 12.2853L8.63994 10.8084L7.53225 9.70068L6.67071 11.4238L4.5784 14.3776ZM10.1169 6.99299V8.59299C10.1169 8.59299 10.9784 9.20837 11.1015 9.45453C11.2246 9.57761 11.3476 9.57761 11.4707 9.57761C11.8399 9.57761 12.0861 9.33145 12.0861 8.96222C12.0861 8.71607 11.963 8.59299 11.8399 8.46991L10.1169 6.99299Z" fill="#141414"/>
</svg>
