<svg width="17" height="17" viewBox="0 0 17 17" fill="none" xmlns="http://www.w3.org/2000/svg">
<g clip-path="url(#clip0_7_228)">
<g clip-path="url(#clip1_7_228)">
<path fill-rule="evenodd" clip-rule="evenodd" d="M2.0835 3.1368C2.0835 2.40042 2.68045 1.80347 3.41683 1.80347H14.0835C14.8199 1.80347 15.4168 2.40042 15.4168 3.1368V13.8035C15.4168 14.5399 14.8199 15.1368 14.0835 15.1368H3.41683C2.68045 15.1368 2.0835 14.5399 2.0835 13.8035V12.4702C2.0835 12.102 2.38197 11.8035 2.75016 11.8035C3.11835 11.8035 3.41683 12.102 3.41683 12.4702V13.8035H9.41683V12.4702C9.41683 12.102 9.71531 11.8035 10.0835 11.8035C10.4517 11.8035 10.7502 12.102 10.7502 12.4702V13.8035H14.0835V7.80347H10.7502V9.47013C10.7502 9.83832 10.4517 10.1368 10.0835 10.1368C9.71531 10.1368 9.41683 9.83832 9.41683 9.47013V7.80347C9.41683 7.06709 10.0138 6.47013 10.7502 6.47013H14.0835V3.1368H3.41683V6.47013H6.75016C7.11835 6.47013 7.41683 6.76861 7.41683 7.1368C7.41683 7.50499 7.11835 7.80347 6.75016 7.80347H3.41683V9.1368C3.41683 9.50499 3.11835 9.80347 2.75016 9.80347C2.38197 9.80347 2.0835 9.50499 2.0835 9.1368V3.1368Z" fill="#5A5A5A"/>
</g>
</g>
<defs>
<clipPath id="clip0_7_228">
<rect width="16" height="16" fill="white" transform="translate(0.75 0.469971)"/>
</clipPath>
<clipPath id="clip1_7_228">
<rect width="16" height="16" fill="white" transform="translate(0.75 0.469971)"/>
</clipPath>
</defs>
</svg>
